<!DOCTYPE svg PUBLIC "-//W3C//DTD SVG 1.1//EN" "http://www.w3.org/Graphics/SVG/1.1/DTD/svg11.dtd">
<!-- Uploaded to: SVG Repo, www.svgrepo.com, Transformed by: SVG Repo Mixer Tools -->
<svg fill="#000000" width="800px" height="800px" viewBox="-10.8 -10.8 45.60 45.60" xmlns="http://www.w3.org/2000/svg">
<g id="SVGRepo_bgCarrier" stroke-width="0" transform="translate(3.6000000000000014,3.6000000000000014), scale(0.7)">
<rect x="-10.8" y="-10.8" width="45.60" height="45.60" rx="22.8" fill="#e6af19" strokewidth="0"/>
</g>
<g id="SVGRepo_tracerCarrier" stroke-linecap="round" stroke-linejoin="round"/>
<g id="SVGRepo_iconCarrier">
<path d="M13.464 6c1.43 0 2.779.613 3.799 1.726l1.475-1.352C17.334 4.843 15.461 4 13.464 4c-1.998 0-3.87.843-5.272 2.375A8.034 8.034 0 0 0 6.589 9H4v2h2.114c-.038.33-.064.663-.064 1s.026.67.064 1H4v2h2.589c.362.97.901 1.861 1.603 2.626C9.594 19.157 11.466 20 13.464 20c1.997 0 3.87-.843 5.273-2.374l-1.475-1.352C16.243 17.387 14.894 18 13.464 18s-2.778-.612-3.798-1.726A5.937 5.937 0 0 1 8.801 15H13v-2H8.139c-.05-.328-.089-.66-.089-1s.039-.672.089-1H13V9H8.801c.24-.457.516-.893.865-1.274C10.686 6.613 12.034 6 13.464 6z"/>
</g>
</svg>