<!DOCTYPE svg PUBLIC "-//W3C//DTD SVG 1.1//EN" "http://www.w3.org/Graphics/SVG/1.1/DTD/svg11.dtd">
<!-- Uploaded to: SVG Repo, www.svgrepo.com, Transformed by: SVG Repo Mixer Tools -->
<svg fill="#ffffff" width="800px" height="800px" viewBox="-2.4 -2.4 28.80 28.80" xmlns="http://www.w3.org/2000/svg" stroke="#ffffff" stroke-width="0.00024000000000000003">
<g id="SVGRepo_bgCarrier" stroke-width="0" transform="translate(3.6000000000000014,3.6000000000000014), scale(0.7)">
<rect x="-2.4" y="-2.4" width="28.80" height="28.80" rx="14.4" fill="#63ce1c" strokewidth="0"/>
</g>
<g id="SVGRepo_tracerCarrier" stroke-linecap="round" stroke-linejoin="round" stroke="#CCCCCC" stroke-width="0.096"/>
<g id="SVGRepo_iconCarrier">
<path d="M12,1A11,11,0,1,0,23,12,11.013,11.013,0,0,0,12,1Zm0,20a9,9,0,1,1,9-9A9.011,9.011,0,0,1,12,21ZM17.737,8.824a1,1,0,0,1-.061,1.413l-6,5.5a1,1,0,0,1-1.383-.03l-3-3a1,1,0,0,1,1.415-1.414l2.323,2.323,5.294-4.853A1,1,0,0,1,17.737,8.824Z"/>
</g>
</svg>